<?xml version="1.0" standalone="no"?>
<!DOCTYPE svg PUBLIC "-//W3C//DTD SVG 20010904//EN"
 "http://www.w3.org/TR/2001/REC-SVG-20010904/DTD/svg10.dtd">
<svg version="1.0" xmlns="http://www.w3.org/2000/svg"
 width="16.000000pt" height="16.000000pt" viewBox="0 0 16.000000 16.000000"
 preserveAspectRatio="xMidYMid meet">

<g transform="translate(0.000000,16.000000) scale(0.100000,-0.100000)"
fill="#000000" stroke="none">
<path d="M18 138 c-15 -9 -12 -10 59 -12 29 -2 58 1 65 6 15 9 12 10 -59 12
-29 2 -58 -1 -65 -6z"/>
<path d="M2 70 c1 -44 1 -44 5 -7 l4 37 69 0 c57 0 69 -3 73 -17 3 -12 5 -10
6 7 1 25 0 25 -79 25 l-80 0 2 -45z"/>
<path d="M114 68 c-4 -7 -4 -10 1 -6 4 4 15 2 24 -5 14 -11 14 -10 2 6 -16 20
-18 21 -27 5z"/>
<path d="M90 36 c0 -8 4 -17 9 -20 5 -4 7 3 4 14 -6 23 -13 26 -13 6z"/>
<path d="M33 13 c9 -2 25 -2 35 0 9 3 1 5 -18 5 -19 0 -27 -2 -17 -5z"/>
</g>
</svg>
